<svg width="140" height="140" viewBox="0 0 140 140" fill="none" xmlns="http://www.w3.org/2000/svg">
<path fill-rule="evenodd" clip-rule="evenodd" d="M64.9765 26.9123C64.9761 23.1325 61.9117 20.0677 58.1318 20.0676C54.352 20.0677 51.2875 23.1326 51.2871 26.9123V42.6828L64.9765 50.5862V26.9123ZM54.7099 119.083C56.8274 120.306 59.4361 120.306 61.5537 119.083L109.772 91.2444C110.122 91.0546 110.455 90.8322 110.769 90.5813C110.779 90.5733 110.79 90.5658 110.8 90.5578C110.873 90.499 110.944 90.4382 111.015 90.3762C111.032 90.361 111.049 90.3456 111.066 90.3303C111.131 90.2726 111.194 90.2139 111.257 90.1535C111.279 90.1326 111.3 90.1113 111.321 90.0901C111.378 90.0339 111.433 89.9766 111.488 89.9182C111.511 89.8938 111.534 89.8696 111.557 89.8449C111.604 89.7929 111.65 89.7396 111.696 89.6858C111.728 89.6485 111.76 89.6113 111.791 89.5735C111.826 89.5307 111.86 89.4874 111.894 89.4436C111.935 89.3917 111.975 89.3393 112.014 89.2864C112.037 89.2548 112.059 89.2227 112.082 89.1906C112.126 89.1284 112.169 89.0657 112.211 89.0022C112.233 88.9678 112.256 88.9335 112.278 88.8987C112.315 88.84 112.351 88.7806 112.387 88.7209C112.4 88.6986 112.415 88.6771 112.428 88.6545C112.438 88.6363 112.448 88.6171 112.458 88.5989C112.492 88.5392 112.524 88.4788 112.556 88.4182C112.578 88.3762 112.6 88.3344 112.621 88.2922C112.647 88.2408 112.671 88.1889 112.695 88.1369C112.72 88.0833 112.746 88.0298 112.769 87.9758C112.792 87.925 112.813 87.8738 112.834 87.8225C112.856 87.7695 112.877 87.7166 112.897 87.6633C112.911 87.6267 112.924 87.5898 112.937 87.553C113.002 87.3745 113.059 87.1949 113.108 87.0139C113.113 86.9964 113.117 86.9787 113.122 86.9612C113.201 86.6578 113.26 86.3521 113.297 86.0451C113.302 86.0062 113.304 85.967 113.309 85.928C113.315 85.8612 113.322 85.7945 113.327 85.7278C113.421 84.4628 113.162 83.1606 112.516 81.969C112.506 81.9512 112.497 81.933 112.487 81.9153C112.467 81.8795 112.449 81.8424 112.429 81.8069C112.404 81.764 112.376 81.723 112.351 81.6809C112.339 81.6613 112.326 81.6418 112.314 81.6223C112.27 81.5505 112.224 81.4799 112.178 81.4104C112.16 81.3843 112.143 81.3581 112.125 81.3323C111.495 80.4216 110.677 79.7061 109.753 79.2082L36.2675 36.7805C32.9939 34.8907 28.808 36.0119 26.9179 39.2854C25.028 42.5591 26.1501 46.7459 29.4238 48.636L92.8076 85.2317L64.9765 101.301V72.3215L51.2871 64.4172V113.155C51.2871 115.601 52.5924 117.86 54.7099 119.083Z" fill="url(#paint0_linear_1337_2206)"/>
<defs>
<linearGradient id="paint0_linear_1337_2206" x1="26.0007" y1="37.9126" x2="114.843" y2="94.2779" gradientUnits="userSpaceOnUse">
<stop offset="0.294702" stop-color="#FF0000"/>
<stop offset="1" stop-color="#990000"/>
</linearGradient>
</defs>
</svg>
