<svg width="640" height="106" viewBox="0 0 640 106" fill="none" xmlns="http://www.w3.org/2000/svg">
<path d="M47.8307 82H31.9447V23.4042H56.5115C70.4009 23.4042 80.9915 29.9149 80.9915 42.8493C80.9915 50.5753 76.6511 56.9123 69.7932 59.0825C72.7447 60.9923 74.6545 64.3779 77.2588 69.6732L83.2486 82H65.8L60.3311 70.9753C58.3345 66.9821 56.0775 65.5064 50.869 65.5064H47.9175L47.8307 82ZM56.6851 38.1617H48.0043L47.9175 51.2698H56.5115C61.1992 51.2698 64.4979 48.6655 64.4979 44.4987C64.4979 40.0715 61.1992 38.1617 56.6851 38.1617ZM104.094 83.2153C90.2048 83.2153 79.7877 74.0136 79.7877 59.777C79.7877 47.2766 89.1631 36.8595 102.879 36.8595C117.115 36.8595 125.015 47.4502 125.015 59.0825V62.9889H94.8056C95.8473 67.3294 99.146 69.9336 103.921 69.9336C108.087 69.9336 111.386 67.6766 112.949 64.2911L124.928 70.2808C121.195 78.354 113.817 83.2153 104.094 83.2153ZM95.5001 54.9157H109.476C108.782 52.4851 106.351 50.2281 102.705 50.2281C98.9724 50.2281 96.455 52.3983 95.5001 54.9157ZM183.074 36.8595C198.005 36.8595 205.211 47.2766 205.211 59.343V82H189.585V62.034C189.585 56.5651 187.588 52.051 181.859 52.051C176.13 52.051 174.22 56.5651 174.22 62.034V82H158.594V62.034C158.594 56.5651 156.685 52.051 150.955 52.051C145.226 52.051 143.229 56.5651 143.229 62.034V82H127.604V59.343C127.604 47.2766 134.809 36.8595 149.74 36.8595C157.9 36.8595 163.803 40.0715 166.494 45.3668C169.359 40.0715 175.609 36.8595 183.074 36.8595ZM231.265 83.2153C217.376 83.2153 206.959 74.0136 206.959 59.777C206.959 47.2766 216.334 36.8595 230.05 36.8595C244.287 36.8595 252.186 47.4502 252.186 59.0825V62.9889H221.977C223.018 67.3294 226.317 69.9336 231.092 69.9336C235.258 69.9336 238.557 67.6766 240.12 64.2911L252.099 70.2808C248.367 78.354 240.988 83.2153 231.265 83.2153ZM222.671 54.9157H236.647C235.953 52.4851 233.522 50.2281 229.876 50.2281C226.144 50.2281 223.626 52.3983 222.671 54.9157ZM278.3 52.4851C272.571 52.4851 270.4 57.0859 270.4 62.5549V82H254.775V60.6451C254.775 47.8842 262.24 37.2936 278.3 37.2936C294.36 37.2936 301.825 47.8842 301.825 60.6451V82H286.2V62.5549C286.2 57.0859 284.029 52.4851 278.3 52.4851ZM327.833 83.2153C313.944 83.2153 303.527 74.0136 303.527 59.777C303.527 47.2766 312.902 36.8595 326.618 36.8595C340.854 36.8595 348.754 47.4502 348.754 59.0825V62.9889H318.545C319.586 67.3294 322.885 69.9336 327.659 69.9336C331.826 69.9336 335.125 67.6766 336.688 64.2911L348.667 70.2808C344.934 78.354 337.556 83.2153 327.833 83.2153ZM319.239 54.9157H333.215C332.521 52.4851 330.09 50.2281 326.444 50.2281C322.711 50.2281 320.194 52.3983 319.239 54.9157ZM363.71 82H346.262L355.724 65.5064C357.026 63.2493 357.633 61.7736 357.633 60.3847C357.633 59.0825 357.113 57.7804 355.984 55.8706L346.175 38.5957H363.797L369.873 49.8808C370.481 50.9225 370.915 52.051 371.349 53.1796H373.867C374.301 52.051 374.735 50.9225 375.342 49.8808L381.419 38.5957H399.041L389.232 55.8706C388.103 57.7804 387.582 59.0825 387.582 60.3847C387.582 61.7736 388.19 63.2493 389.492 65.5064L398.954 82H381.506L375.342 70.9753C374.648 69.76 374.127 68.4579 373.693 67.0689H371.523C371.089 68.4579 370.568 69.76 369.873 70.9753L363.71 82Z" fill="#F8F9FF"/>
<mask id="mask0_1335_2144" style="mask-type:alpha" maskUnits="userSpaceOnUse" x="398" y="12" width="217" height="72">
<path fill-rule="evenodd" clip-rule="evenodd" d="M580.303 16.7943C580.303 14.1469 578.156 12.0008 575.509 12.0004C572.861 12.0004 570.714 14.1466 570.714 16.7943V27.8412L580.303 33.3773V16.7943ZM573.111 81.3578C574.594 82.214 576.423 82.2142 577.906 81.3578L611.69 61.8519C612.062 61.649 612.408 61.395 612.72 61.0941C612.737 61.077 612.755 61.0597 612.772 61.0424C612.81 61.005 612.846 60.9668 612.883 60.9281C612.897 60.9132 612.911 60.8983 612.925 60.8832C612.964 60.84 613.003 60.7962 613.041 60.7513C613.057 60.7323 613.073 60.713 613.089 60.6937C613.116 60.6603 613.143 60.6265 613.17 60.5922C613.196 60.5582 613.222 60.5242 613.248 60.4896C613.265 60.4664 613.282 60.443 613.299 60.4193C613.331 60.3738 613.363 60.3281 613.393 60.2816C613.406 60.2626 613.418 60.2433 613.43 60.224C613.462 60.175 613.492 60.1255 613.521 60.0756C613.528 60.0648 613.535 60.0542 613.541 60.0433C613.546 60.0346 613.55 60.0257 613.555 60.017C613.581 59.9716 613.605 59.9254 613.63 59.8793C613.647 59.8461 613.665 59.8131 613.681 59.7797C613.696 59.7506 613.71 59.7211 613.723 59.6918C613.743 59.6502 613.763 59.6087 613.781 59.5668C613.793 59.539 613.805 59.5108 613.816 59.4828C614.018 58.9974 614.135 58.4933 614.171 57.9886C614.238 57.064 614.04 56.1098 613.542 55.2465C613.524 55.2165 613.505 55.188 613.487 55.1586C613.478 55.1442 613.47 55.1299 613.461 55.1156C613.343 54.9261 613.215 54.7477 613.076 54.5804C613.068 54.5712 613.06 54.5623 613.053 54.5531C612.66 54.0867 612.191 53.7097 611.674 53.4301L560.193 23.7064C557.9 22.3825 554.967 23.1682 553.643 25.4613C552.319 27.7545 553.105 30.6872 555.398 32.0111L599.798 57.6459L580.303 68.9008V48.6019L570.714 43.0658V77.2054C570.714 78.9183 571.628 80.5013 573.111 81.3578Z" fill="url(#paint0_linear_1335_2144)"/>
<path d="M428.074 83.0417C411.667 83.0417 398.472 69.76 398.472 52.8323C398.472 36.0783 411.667 22.7966 428.074 22.7966C438.057 22.7966 447.172 27.9183 451.599 36.4255L444.394 40.5923C441.009 34.7761 435.192 31.217 427.727 31.217C416.442 31.217 407.587 40.5923 407.587 52.8323C407.587 65.2459 416.355 74.7081 427.727 74.7081C435.192 74.7081 441.095 71.1489 444.394 65.3328L451.599 69.4996C447.172 78.0068 438.057 83.0417 428.074 83.0417ZM456.27 19.9319H464.864V82H456.27V19.9319ZM493.708 83.0417C480.86 83.0417 470.964 72.9719 470.964 60.6451C470.964 48.4051 480.947 38.4221 493.708 38.4221C506.556 38.4221 516.278 48.4919 516.278 60.6451C516.278 72.9719 506.469 83.0417 493.708 83.0417ZM493.708 74.8817C501.608 74.8817 507.684 68.4579 507.684 60.7319C507.684 52.9191 501.608 46.4953 493.708 46.4953C485.722 46.4953 479.558 52.9191 479.558 60.7319C479.558 68.4579 485.722 74.8817 493.708 74.8817ZM540.981 74.7081C548.88 74.7081 553.221 67.8502 553.221 59.9506V39.4638H561.815V60.9923C561.815 73.3191 554.349 83.0417 540.981 83.0417C527.786 83.0417 520.32 73.2323 520.32 60.9055V39.4638H528.914V60.0374C528.914 67.8502 533.168 74.7081 540.981 74.7081Z" fill="url(#paint1_linear_1335_2144)"/>
</mask>
<g mask="url(#mask0_1335_2144)">
<path d="M397 9C482.525 9 530.475 9 616 9V87H397V9Z" fill="url(#paint2_linear_1335_2144)"/>
</g>
<defs>
<linearGradient id="paint0_linear_1335_2144" x1="553.001" y1="24.5002" x2="615.232" y2="63.9826" gradientUnits="userSpaceOnUse">
<stop offset="0.294702" stop-color="#FF0000"/>
<stop offset="1" stop-color="#990000"/>
</linearGradient>
<linearGradient id="paint1_linear_1335_2144" x1="395.001" y1="81.4644" x2="475.04" y2="-34.0639" gradientUnits="userSpaceOnUse">
<stop offset="0.294702" stop-color="#FF0000"/>
<stop offset="1" stop-color="#990000"/>
</linearGradient>
<linearGradient id="paint2_linear_1335_2144" x1="397.002" y1="73.0715" x2="457.623" y2="-50.4758" gradientUnits="userSpaceOnUse">
<stop offset="0.294702" stop-color="#FF0000"/>
<stop offset="1" stop-color="#990000"/>
</linearGradient>
</defs>
</svg>
